<svg width="800" height="600" viewBox="0 0 800 600" fill="none" xmlns="http://www.w3.org/2000/svg">
  <path d="M750 300C750 350 700 400 600 400C500 400 400 350 300 300C200 250 100 200 50 150C0 100 0 50 50 50C100 50 200 100 300 150C400 200 500 250 600 250C700 250 750 250 750 300Z" fill="#7C3AED" opacity="0.8"/>
  <path d="M600 250C600 275 575 300 525 300C475 300 425 275 375 250C325 225 275 200 250 175C225 150 225 125 250 125C275 125 325 150 375 175C425 200 475 225 525 225C575 225 600 225 600 250Z" fill="#FF8A65"/>
</svg> 