<svg width="122" height="43" viewBox="0 0 122 43" fill="none" xmlns="http://www.w3.org/2000/svg">
<path fill-rule="evenodd" clip-rule="evenodd" d="M75.5348 29.8254C72.904 27.7862 71.2105 24.5954 71.2105 21.0091C71.2105 16.515 73.8697 12.6421 77.7005 10.8779C73.2041 11.9031 69.8487 15.9263 69.8487 20.7333C69.8487 24.73 72.1684 28.185 75.5348 29.8254Z" fill="white"/>
<path fill-rule="evenodd" clip-rule="evenodd" d="M92.1287 28.6144C89.5598 32.2834 85.3666 34.7808 80.5174 35.0396C74.4424 35.3639 69.0169 32.085 66.3579 27.0863C68.0656 33.0293 73.7441 37.229 80.2422 36.8821C85.6462 36.5937 90.1519 33.2391 92.1287 28.6144Z" fill="white"/>
<path d="M98.652 11.705C97.0026 11.257 93.6298 10.6051 93.2657 10.4653C93.2229 10.4688 93.1502 10.5241 93.2015 10.7168C93.2529 10.9095 93.5439 12.1571 93.8625 13.0894C93.9441 13.328 93.9836 13.539 94.0856 13.497L99.4769 13.3807C99.3978 13.0956 99.2112 12.4613 99.0984 12.2045C98.9855 11.9476 98.8214 11.751 98.652 11.705Z" fill="white"/>
<path d="M96.1696 17.2282L94.3347 15.9897C94.4435 17.0861 94.5653 17.9344 94.5758 18.1189C94.5863 18.3033 94.6733 18.3497 94.7155 18.3498C95.1823 18.3597 96.1351 18.3735 96.2112 18.3498C96.2872 18.326 96.3122 18.2695 96.3151 18.2443C96.317 18.0721 96.3196 17.6845 96.3151 17.5113C96.3107 17.338 96.2162 17.2503 96.1696 17.2282Z" fill="white"/>
<path fill-rule="evenodd" clip-rule="evenodd" d="M92.2207 18.8667C92.3545 19.5555 92.4246 20.2671 92.4246 20.9959C92.4246 27.2958 87.1924 32.4028 80.7381 32.4028C74.2838 32.4028 69.0515 27.2958 69.0515 20.9959C69.0515 15.597 72.892 11.1343 78.0527 9.96823L78.0261 9.94848C79.1972 9.90572 80.1338 8.91003 80.1338 7.688C80.1338 6.43877 79.155 5.42608 77.9476 5.42608L77.9335 5.42612L77.9569 5.40723C77.8624 5.41833 77.7681 5.43045 77.6742 5.44359C77.6564 5.4459 77.6386 5.44842 77.6209 5.45116C70.9766 6.40897 65.856 12.4494 65.856 19.7582C65.856 27.7328 71.9522 34.1975 79.4722 34.1975C86.9923 34.1975 93.0884 27.7328 93.0884 19.7582C93.0884 19.1714 93.0554 18.5929 92.9913 18.0245L92.9849 18.0294C92.4481 15.6186 92.0506 13.788 91.6531 11.9573C91.2529 10.1147 90.8528 8.27199 90.3106 5.8376C89.9132 6.01811 89.2417 6.60562 89.1348 7.72392C89.0648 8.45665 89.3164 9.28619 89.5199 9.95709C89.7047 10.5661 89.8498 11.0444 89.6786 11.2009C89.4894 11.3738 88.2 12.3189 86.9488 13.2359C86.2962 13.7141 85.6541 14.1847 85.1839 14.5342C85.1109 14.6267 84.9621 14.8819 84.9509 15.1622C84.9397 15.4425 84.9977 16.1011 85.0282 16.3954L90.0894 14.5342C90.1996 14.536 90.4381 14.5786 90.5099 14.7342C90.5817 14.8898 90.877 16.0285 91.0156 16.5784C91.0345 16.6606 91.0379 16.8754 90.9002 17.0777C90.7625 17.28 90.2151 18.03 89.9587 18.3797C89.9358 18.4259 89.8878 18.5451 89.8791 18.6524C89.8704 18.7596 90.0011 19.5546 90.0675 19.9387C90.0884 19.9974 90.1741 20.0839 90.3493 19.9604C90.5246 19.8368 91.4759 18.9586 91.9296 18.5349C91.9946 18.4952 92.1321 18.463 92.1627 18.6524C92.1691 18.6917 92.1849 18.7453 92.2059 18.8165C92.2106 18.8324 92.2155 18.8491 92.2207 18.8667Z" fill="white"/>
<path d="M74.4306 27.2964V25.9044L81.6626 17.0724L81.9026 17.8564H74.5426V16.0964H83.7746V17.4884L76.5426 26.3204L76.2866 25.5364H83.9826V27.2964H74.4306Z" fill="white"/>
<path d="M102.974 20.7524H108.542V22.4644H102.974V20.7524ZM103.134 25.5524H109.454V27.2964H101.054V16.0964H109.23V17.8404H103.134V25.5524Z" fill="white"/>
<path d="M3.89648 27.2964V17.8564H0.184483V16.0964H9.68848V17.8564H5.97648V27.2964H3.89648ZM14.4495 27.2964V16.0964H19.0575C20.0495 16.0964 20.8975 16.2564 21.6015 16.5764C22.3162 16.8964 22.8655 17.3551 23.2495 17.9524C23.6335 18.5497 23.8255 19.2591 23.8255 20.0804C23.8255 20.9017 23.6335 21.6111 23.2495 22.2084C22.8655 22.7951 22.3162 23.2484 21.6015 23.5684C20.8975 23.8777 20.0495 24.0324 19.0575 24.0324H15.6015L16.5295 23.0884V27.2964H14.4495ZM21.7775 27.2964L18.9455 23.2324H21.1695L24.0175 27.2964H21.7775ZM16.5295 23.3124L15.6015 22.3204H18.9615C19.8788 22.3204 20.5668 22.1231 21.0255 21.7284C21.4948 21.3337 21.7295 20.7844 21.7295 20.0804C21.7295 19.3657 21.4948 18.8164 21.0255 18.4324C20.5668 18.0484 19.8788 17.8564 18.9615 17.8564H15.6015L16.5295 16.8324V23.3124ZM29.3526 27.2964V16.0964H31.4326V27.2964H29.3526ZM40.2239 27.2964L36.5119 16.0964H38.6719L41.9839 26.2244H40.9119L44.3519 16.0964H46.2719L49.6159 26.2244H48.5759L51.9679 16.0964H53.9519L50.2399 27.2964H48.0319L44.9759 18.1604H45.5519L42.4479 27.2964H40.2239ZM58.8464 27.2964V16.0964H60.9264V27.2964H58.8464Z" fill="white"/>
</svg>
